<?xml version="1.0" encoding="UTF-8" standalone="no"?>
<!-- Created with Inkscape (http://www.inkscape.org/) -->

<svg
   xmlns:dc="http://purl.org/dc/elements/1.1/"
   xmlns:cc="http://creativecommons.org/ns#"
   xmlns:rdf="http://www.w3.org/1999/02/22-rdf-syntax-ns#"
   xmlns:svg="http://www.w3.org/2000/svg"
   xmlns="http://www.w3.org/2000/svg"
   xmlns:sodipodi="http://sodipodi.sourceforge.net/DTD/sodipodi-0.dtd"
   xmlns:inkscape="http://www.inkscape.org/namespaces/inkscape"
   width="225.54875"
   height="225.54875"
   id="svg2"
   version="1.1"
   inkscape:version="0.48.5 r10040"
   sodipodi:docname="peermaps.svg">
  <defs
     id="defs4" />
  <sodipodi:namedview
     id="base"
     pagecolor="#ffffff"
     bordercolor="#666666"
     borderopacity="1.0"
     inkscape:pageopacity="0.0"
     inkscape:pageshadow="2"
     inkscape:zoom="0.98994949"
     inkscape:cx="207.2877"
     inkscape:cy="86.36956"
     inkscape:document-units="px"
     inkscape:current-layer="layer1"
     showgrid="false"
     inkscape:window-width="1364"
     inkscape:window-height="766"
     inkscape:window-x="1"
     inkscape:window-y="1"
     inkscape:window-maximized="0"
     fit-margin-top="0"
     fit-margin-left="0"
     fit-margin-right="0"
     fit-margin-bottom="0" />
  <metadata
     id="metadata7">
    <rdf:RDF>
      <cc:Work
         rdf:about="">
        <dc:format>image/svg+xml</dc:format>
        <dc:type
           rdf:resource="http://purl.org/dc/dcmitype/StillImage" />
        <dc:title />
      </cc:Work>
    </rdf:RDF>
  </metadata>
  <g
     inkscape:label="Layer 1"
     inkscape:groupmode="layer"
     id="layer1"
     transform="translate(-137.00514,-124.99751)">
    <path
       sodipodi:type="arc"
       style="fill:#00ffff;fill-opacity:1;stroke:#ff0000;stroke-width:4.25575447;stroke-linecap:round;stroke-linejoin:miter;stroke-miterlimit:4;stroke-opacity:1;stroke-dasharray:none"
       id="path2985"
       sodipodi:cx="329.28571"
       sodipodi:cy="277.36218"
       sodipodi:rx="117.85714"
       sodipodi:ry="117.85714"
       d="m 447.14285,277.36218 c 0,65.0907 -52.76644,117.85714 -117.85714,117.85714 -65.09071,0 -117.85714,-52.76644 -117.85714,-117.85714 0,-65.0907 52.76643,-117.85714 117.85714,-117.85714 65.0907,0 117.85714,52.76644 117.85714,117.85714 z"
       transform="matrix(0.93990384,0,0,0.93990384,-59.717379,-22.92189)" />
    <g
       id="g4185"
       style="fill:#ff0000;fill-opacity:1;stroke:#00ffff;stroke-width:3;stroke-miterlimit:4;stroke-dasharray:none">
      <path
         inkscape:connector-curvature="0"
         id="path3024"
         d="m 232.98935,144.91417 -8.5625,0.34375 -0.71875,5 -2.84375,-2.84375 -1.09375,3.5625 -9.28125,1.4375 0.71875,5.71875 -11.0625,1.4375 -7.875,-5.375 8.21875,-8.5625 -9.625,8.5625 9.28125,7.5 13.21875,-1.78125 7.125,1.0625 2.5,7.875 -2.5,6.78125 2.5,1.4375 -1.4375,7.5 1.09375,6.78125 -7.5,13.21875 0.71875,15 3.90625,6.78125 1.78125,10 -2.5,0.71875 3.9375,6.0625 4.28125,7.5 2.5,-1.4375 -5.71875,-13.5625 -1.0625,-6.78125 3.21875,3.21875 1.0625,7.5 8.9375,16.0625 -1.78125,3.21875 17.125,12.5 4.3125,-1.78125 7.84375,7.84375 5.34375,0.71875 5,7.5 8.59375,4.28125 3.21875,-2.84375 2.5,6.40625 -4.65625,8.21875 -6.78125,4.28125 3.21875,3.21875 -5,2.15625 3.5625,4.28125 3.21875,10 6.4375,2.125 -15.71875,16.09375 1.28125,2.03125 c 31.82668,-7.07488 58.4852,-27.82242 73.5,-55.78125 l -5.15625,-1.625 -10,2.5 -1.78125,-6.78125 -8.21875,1.4375 -6.0625,-5.71875 -9.28125,2.5 -3.21875,-2.84375 -2.84375,6.40625 -1.4375,-1.0625 1.78125,-7.15625 -8.9375,5 -2.125,6.4375 -3.21875,-3.9375 -5.71875,1.4375 -5.71875,-3.5625 3.9375,-8.5625 -5.71875,-2.5 -6.4375,1.40625 7.15625,-13.5625 -9.28125,0.71875 -2.5,5.71875 -7.5,-1.09375 -3.9375,-4.625 1.4375,-10.375 1.40625,-6.78125 8.9375,-2.125 6.0625,2.5 1.4375,-3.59375 9.28125,2.5 3.21875,8.9375 4.28125,1.0625 -3.5625,-12.84375 11.0625,-10.71875 -0.34375,-7.84375 7.125,-5.71875 -1.40625,-3.5625 5.71875,-4.65625 0,5 7.84375,-8.21875 -3.9375,-1.4375 -1.0625,2.5 -3.9375,-1.40625 -0.71875,-5 -3.90625,2.84375 2.5,-5.34375 7.125,-0.375 0.71875,-2.5 1.0625,8.21875 7.15625,-0.71875 -3.21875,-5 -2.5,0.375 -1.4375,-5.71875 -8.5625,-5.375 -7.125,-6.78125 -0.71875,3.9375 -8.59375,-6.78125 -6.0625,-0.375 3.5625,5.71875 -2.84375,0.375 6.0625,6.0625 -3.90625,1.78125 2.125,6.4375 -3.9375,-1.0625 -1.0625,-6.09375 -7.84375,-3.90625 -5.375,-0.71875 -2.125,-7.15625 6.40625,-2.84375 2.15625,-6.09375 -6.78125,-8.5625 -3.5625,5 -11.8125,-2.84375 -12.84375,-8.21875 -5.71875,-8.21875 z"
         style="fill:#ff0000;fill-opacity:1;stroke:none" />
      <path
         inkscape:connector-curvature="0"
         id="path3026"
         d="m 279.77953,152.41474 6.42857,1.42858 3.21429,4.64285 7.14285,3.21429 4.64286,8.92857 10.71429,3.92857 -6.78572,-11.42857 0.71429,-7.14286 -21.07143,-12.85714 -7.14286,0.71429 z"
         style="fill:#ff0000;fill-opacity:1;stroke:none" />
      <path
         inkscape:connector-curvature="0"
         id="path3028"
         d="m 291.2081,175.27189 -11.07143,-4.28572 4.28572,-1.78571 0,-4.64286 -7.14286,-1.42857 -0.71429,4.64286 -2.14285,-0.71429 -0.71429,-4.64286 -2.85714,-5.71428 9.64285,1.42857 13.21429,10 -3.92857,1.78571 z"
         style="fill:#ff0000;fill-opacity:1;stroke:none" />
      <path
         inkscape:connector-curvature="0"
         id="path3030"
         d="m 247.63667,154.20046 5,0.35714 2.5,2.85714 -3.92857,-1.42857 1.42857,3.92857 9.28572,1.42858 -0.35715,-6.42858 -2.85714,1.42858 -6.78571,-6.07143 z"
         style="fill:#ff0000;fill-opacity:1;stroke:none" />
      <path
         inkscape:connector-curvature="0"
         id="path3032"
         d="m 275.85096,145.27189 -7.14286,1.78571 2.14286,5.71429 -2.85715,0.35714 8.57143,2.85714 z"
         style="fill:#ff0000;fill-opacity:1;stroke:none" />
      <path
         inkscape:connector-curvature="0"
         id="path3036"
         d="m 243.42685,127.16417 c -4.87271,0.27582 -9.65954,0.89559 -14.34375,1.78125 l -17.96875,5 c -4.33811,1.61574 -8.53231,3.46943 -12.59375,5.59375 l 15.90625,-1.78125 -0.71875,2.15625 -16.4375,3.21875 8.59375,0.71875 7.84375,-3.21875 0,3.21875 5.71875,-0.71875 0.34375,2.84375 8.21875,-9.625 12.15625,-2.875 3.28125,-6.3125 z"
         style="fill:#ff0000;fill-opacity:1;stroke:none" />
      <path
         inkscape:connector-curvature="0"
         id="path3038"
         d="m 278.35096,258.84332 8.57143,-2.5 10.35714,7.5 -6.78572,0 -1.07142,-2.85715 z"
         style="fill:#ff0000;fill-opacity:1;stroke:none" />
      <path
         inkscape:connector-curvature="0"
         id="path3040"
         d="m 299.42239,266.70046 8.21428,-1.42857 -3.57143,-1.78572 -3.92857,0.35715 z"
         style="fill:#ff0000;fill-opacity:1;stroke:none" />
      <path
         inkscape:connector-curvature="0"
         id="path3034"
         d="m 312.63667,157.41474 -2.14286,3.21429 5,1.07143 z"
         style="fill:#ff0000;fill-opacity:1;stroke:none" />
    </g>
    <g
       id="g4555"
       style="stroke:#000000">
      <path
         inkscape:connector-curvature="0"
         id="path4553"
         d="M 240.35714,171.29075 277.5,130.93361"
         style="fill:none;stroke:#000000;stroke-width:2;stroke-linecap:butt;stroke-linejoin:miter;stroke-miterlimit:4;stroke-opacity:1;stroke-dasharray:none" />
      <path
         inkscape:connector-curvature="0"
         id="path4487"
         d="m 225.76909,155.34672 47.47717,50.76017"
         style="fill:none;stroke:#000000;stroke-width:2;stroke-linecap:butt;stroke-linejoin:miter;stroke-miterlimit:4;stroke-opacity:1;stroke-dasharray:none" />
      <path
         inkscape:connector-curvature="0"
         id="path4497"
         d="m 231.32493,127.56753 -5.55584,28.03173 -39.64848,-8.08122"
         style="fill:none;stroke:#000000;stroke-width:2;stroke-linecap:butt;stroke-linejoin:miter;stroke-miterlimit:4;stroke-opacity:1;stroke-dasharray:none" />
      <path
         inkscape:connector-curvature="0"
         id="path4501"
         d="m 180.71429,325.21932 63.21428,-70"
         style="fill:none;stroke:#000000;stroke-width:2;stroke-linecap:butt;stroke-linejoin:miter;stroke-miterlimit:4;stroke-opacity:1;stroke-dasharray:none" />
      <path
         inkscape:connector-curvature="0"
         id="path4499"
         d="m 244.28571,255.21932 -92.85714,35.35715"
         style="fill:none;stroke:#000000;stroke-width:2;stroke-linecap:butt;stroke-linejoin:miter;stroke-miterlimit:4;stroke-opacity:1;stroke-dasharray:none" />
      <path
         inkscape:connector-curvature="0"
         id="path4549"
         d="m 293.92857,212.36218 58.57143,-15"
         style="fill:none;stroke:#000000;stroke-width:2;stroke-linecap:butt;stroke-linejoin:miter;stroke-miterlimit:4;stroke-opacity:1;stroke-dasharray:none" />
      <path
         inkscape:connector-curvature="0"
         id="path4547"
         d="m 290,217.00504 70,17.14286"
         style="fill:none;stroke:#000000;stroke-width:2;stroke-linecap:butt;stroke-linejoin:miter;stroke-miterlimit:4;stroke-opacity:1;stroke-dasharray:none" />
      <path
         inkscape:connector-curvature="0"
         id="path4489"
         d="m 243.19422,256.36198 7.82869,-26.76905 29.54696,1.76777 16.16244,-23.99112 -23.73858,-1.01016 -9.34392,24.24367"
         style="fill:none;stroke:#000000;stroke-width:2;stroke-linecap:butt;stroke-linejoin:miter;stroke-miterlimit:4;stroke-opacity:1;stroke-dasharray:none"
         sodipodi:nodetypes="cccccc" />
      <path
         inkscape:connector-curvature="0"
         id="path4491"
         d="M 251.02291,229.3404 224.5064,193.22744"
         style="fill:none;stroke:#000000;stroke-width:2;stroke-linecap:butt;stroke-linejoin:miter;stroke-miterlimit:4;stroke-opacity:1;stroke-dasharray:none" />
      <path
         inkscape:connector-curvature="0"
         id="path4493"
         d="m 222.4861,226.81501 28.28427,2.77792"
         style="fill:none;stroke:#000000;stroke-width:2;stroke-linecap:butt;stroke-linejoin:miter;stroke-miterlimit:4;stroke-opacity:1;stroke-dasharray:none" />
      <path
         inkscape:connector-curvature="0"
         id="path4495"
         d="m 224.00133,193.22744 26.76904,-11.11168"
         style="fill:none;stroke:#000000;stroke-width:2;stroke-linecap:butt;stroke-linejoin:miter;stroke-miterlimit:4;stroke-opacity:1;stroke-dasharray:none" />
      <path
         style="fill:none;stroke:#000000;stroke-width:2;stroke-linecap:butt;stroke-linejoin:miter;stroke-miterlimit:4;stroke-opacity:1;stroke-dasharray:none"
         d="m 286.42857,258.79075 32.5,32.14286"
         id="path4615"
         inkscape:connector-curvature="0" />
      <path
         inkscape:connector-curvature="0"
         id="path4505"
         d="M 319.28571,289.86218 287.5,323.07647 l 22.85714,8.92857"
         style="fill:none;stroke:#000000;stroke-width:2;stroke-linecap:butt;stroke-linejoin:miter;stroke-miterlimit:4;stroke-opacity:1;stroke-dasharray:none"
         sodipodi:nodetypes="ccc" />
      <path
         inkscape:connector-curvature="0"
         id="path4507"
         d="m 311.42857,298.07647 18.92857,16.07143"
         style="fill:none;stroke:#000000;stroke-width:2;stroke-linecap:butt;stroke-linejoin:miter;stroke-miterlimit:4;stroke-opacity:1;stroke-dasharray:none" />
      <path
         inkscape:connector-curvature="0"
         id="path4509"
         d="m 287.14286,258.79075 -25,12.85715 -18.92857,-15.71429"
         style="fill:none;stroke:#000000;stroke-width:2;stroke-linecap:butt;stroke-linejoin:miter;stroke-miterlimit:4;stroke-opacity:1;stroke-dasharray:none" />
      <path
         inkscape:connector-curvature="0"
         id="path4511"
         d="m 222.85714,226.6479 22.85715,19.64285"
         style="fill:none;stroke:#000000;stroke-width:2;stroke-linecap:butt;stroke-linejoin:miter;stroke-miterlimit:4;stroke-opacity:1;stroke-dasharray:none" />
      <path
         inkscape:connector-curvature="0"
         id="path4539"
         d="M 233.21429,163.07647 232.5,189.50504"
         style="fill:none;stroke:#000000;stroke-width:2;stroke-linecap:butt;stroke-linejoin:miter;stroke-miterlimit:4;stroke-opacity:1;stroke-dasharray:none" />
      <path
         inkscape:connector-curvature="0"
         id="path4541"
         d="m 240.71429,214.86218 23.92857,-18.57143"
         style="fill:none;stroke:#000000;stroke-width:2;stroke-linecap:butt;stroke-linejoin:miter;stroke-miterlimit:4;stroke-opacity:1;stroke-dasharray:none" />
      <path
         inkscape:connector-curvature="0"
         id="path4543"
         d="m 222.14286,226.6479 12.5,-20.35715"
         style="fill:none;stroke:#000000;stroke-width:2;stroke-linecap:butt;stroke-linejoin:miter;stroke-miterlimit:4;stroke-opacity:1;stroke-dasharray:none" />
      <path
         inkscape:connector-curvature="0"
         id="path4545"
         d="m 280.35714,231.6479 6.42857,27.5"
         style="fill:none;stroke:#000000;stroke-width:2;stroke-linecap:butt;stroke-linejoin:miter;stroke-miterlimit:4;stroke-opacity:1;stroke-dasharray:none" />
      <path
         inkscape:connector-curvature="0"
         id="path4551"
         d="m 223.92857,192.71932 -61.78571,-22.5"
         style="fill:none;stroke:#000000;stroke-width:2;stroke-linecap:butt;stroke-linejoin:miter;stroke-miterlimit:4;stroke-opacity:1;stroke-dasharray:none" />
    </g>
    <path
       transform="matrix(0.93990384,0,0,0.93990384,-59.717379,-22.92189)"
       d="m 447.14285,277.36218 c 0,65.0907 -52.76644,117.85714 -117.85714,117.85714 -65.09071,0 -117.85714,-52.76644 -117.85714,-117.85714 0,-65.0907 52.76643,-117.85714 117.85714,-117.85714 65.0907,0 117.85714,52.76644 117.85714,117.85714 z"
       sodipodi:ry="117.85714"
       sodipodi:rx="117.85714"
       sodipodi:cy="277.36218"
       sodipodi:cx="329.28571"
       id="path3989"
       style="fill:#ff0000;fill-opacity:0;stroke:#000000;stroke-width:4.25575447;stroke-linecap:round;stroke-linejoin:miter;stroke-miterlimit:4;stroke-opacity:1;stroke-dasharray:none"
       sodipodi:type="arc" />
  </g>
</svg>
